<svg width="280" height="280" viewBox="0 0 280 280" fill="none" xmlns="http://www.w3.org/2000/svg">
<path d="M69.3706 58.1033L69.3706 58.1032L69.3623 58.1115L56.113 71.3608C52.5872 74.8866 52.2187 80.4798 55.2396 84.4525L55.2396 84.4525L55.2464 84.4613L81.7399 118.903C81.7408 118.904 81.7416 118.905 81.7425 118.906C83.6125 121.356 86.5517 122.804 89.6236 122.804H106.715L141.237 157.326C136.77 167.442 138.654 179.719 146.973 188.003L184.068 225.098C188.989 230.02 196.98 230.02 201.901 225.098L223.1 203.9C228.021 198.978 228.021 190.988 223.1 186.066L186.002 148.968C177.721 140.687 165.447 138.77 155.327 143.236L120.805 108.713V91.6221C120.805 88.5121 119.353 85.6073 116.907 83.7401C116.906 83.7396 116.905 83.739 116.904 83.7384L82.4724 57.2855C82.4706 57.284 82.4688 57.2826 82.467 57.2812C78.5131 54.2057 72.9187 54.5964 69.3706 58.1033ZM134.032 182.601L134.941 181.692L134.491 180.488C132.05 173.947 131.674 166.842 133.365 160.111L133.641 159.011L132.839 158.21L112.402 137.773L110.988 136.358L109.573 137.773L60.3859 186.994C60.3857 186.994 60.3856 186.994 60.3854 186.994C55.8054 191.575 53.2086 197.813 53.2086 204.307C53.2086 217.833 64.1735 228.798 77.6992 228.798C84.1938 228.798 90.4322 226.201 95.0126 221.62L134.032 182.601ZM171.806 113.504H171.802C169.992 113.504 168.502 112.014 168.502 110.204V91.1915C168.502 90.3341 168.852 89.4838 169.473 88.8628L190.639 67.6971C192.477 65.8592 193.1 63.3434 192.576 61.1097C192.043 58.8434 190.322 56.8826 187.657 56.3114L187.653 56.3106C184.238 55.5863 180.721 55.2071 177.102 55.2071C149.664 55.2071 127.405 77.467 127.405 104.904V105.169V105.998L127.99 106.584L156.244 134.838L157.048 135.641L158.149 135.363C169.416 132.514 181.868 135.52 190.692 144.344L195.893 149.544L196.886 150.537L198.157 149.941C215.061 142.006 226.799 124.822 226.799 104.904C226.799 101.286 226.42 97.7674 225.695 94.3828C225.124 91.7173 223.163 89.9961 220.897 89.4639C218.663 88.9393 216.147 89.5624 214.309 91.4003L193.144 112.566C192.523 113.187 191.673 113.537 190.816 113.537C190.816 113.537 190.815 113.537 190.815 113.537L171.806 113.504Z" stroke="#C5C5C5" stroke-width="4"/>
</svg>
