<svg width="280" height="280" viewBox="0 0 280 280" fill="none" xmlns="http://www.w3.org/2000/svg">
<path d="M165.571 106.307H131.679C126.843 106.321 122.209 108.248 118.789 111.668C115.369 115.087 113.442 119.721 113.429 124.557V163.665M165.571 106.307H230.75C235.586 106.321 240.22 108.248 243.639 111.668C247.059 115.087 248.986 119.721 249 124.557V187.129C248.986 191.965 247.059 196.599 243.639 200.018C240.22 203.438 235.586 205.365 230.75 205.379H217.714V231.45L187.172 205.985C186.703 205.593 186.111 205.379 185.5 205.379H131.679C126.843 205.365 122.209 203.438 118.789 200.018C115.369 196.599 113.442 191.965 113.429 187.129V163.665M165.571 106.307V82.8438C165.558 78.0078 163.631 73.3738 160.211 69.9542C156.791 66.5347 152.157 64.6075 147.321 64.5938H48.25C43.414 64.6075 38.7801 66.5347 35.3605 69.9542C31.9409 73.3738 30.0138 78.0078 30 82.8438V145.415C30.0138 150.251 31.9409 154.885 35.3605 158.305C38.7801 161.724 43.414 163.651 48.25 163.665H61.2857V189.737L91.8284 164.271C92.2974 163.88 92.8891 163.665 93.5002 163.665H113.429" stroke="#C5C5C5" stroke-width="4" stroke-linejoin="round"/>
</svg>
