<svg width="280" height="280" viewBox="0 0 280 280" fill="none" xmlns="http://www.w3.org/2000/svg">
<path d="M156.581 57.8641L125.639 26.9567C121.541 22.8585 116.008 20.5703 110.203 20.5703H53.6814C41.6258 20.5703 31.8242 30.3719 31.8242 42.4275V173.57C31.8242 185.626 41.6258 195.427 53.6814 195.427H93.3953M156.581 57.8641C157.424 58.7074 158.191 59.6129 158.877 60.5699M156.581 57.8641L158.877 60.5699M93.3953 107.999V82.4271C93.3953 70.3715 103.197 60.5699 115.252 60.5699H158.877M93.3953 107.999H72.8064C68.2642 107.999 64.6099 111.653 64.6099 116.195C64.6099 120.738 68.2642 124.392 72.8064 124.392H93.3953M93.3953 107.999V124.392M158.877 60.5699H171.774C177.579 60.5699 183.112 62.8581 187.21 66.9563L218.152 97.8637C222.25 101.962 224.538 107.529 224.538 113.334V213.57C224.538 225.625 214.737 235.427 202.681 235.427H115.252C103.197 235.427 93.3953 225.625 93.3953 213.57V195.427M93.3953 195.427V157.177M93.3953 140.785H72.8064C68.2642 140.785 64.6099 144.439 64.6099 148.981C64.6099 153.523 68.2642 157.177 72.8064 157.177H93.3953M93.3953 140.785V157.177M93.3953 140.785V124.392M134.377 147.998C129.835 147.998 126.181 151.653 126.181 156.195C126.181 160.737 129.835 164.391 134.377 164.391H183.556C188.098 164.391 191.752 160.737 191.752 156.195C191.752 151.653 188.098 147.998 183.556 147.998H134.377ZM134.377 180.784C129.835 180.784 126.181 184.438 126.181 188.981C126.181 193.523 129.835 197.177 134.377 197.177H183.556C188.098 197.177 191.752 193.523 191.752 188.981C191.752 184.438 188.098 180.784 183.556 180.784H134.377Z" stroke="#C5C5C5" stroke-width="4"/>
</svg>
