<svg width="24" height="24" viewBox="0 0 24 24" fill="none" xmlns="http://www.w3.org/2000/svg">
<path d="M12.8438 3.00079C17.3473 3.00079 21 6.65337 21 11.1567C21 11.6242 20.6238 12.0004 20.1562 12.0004C19.6887 12.0004 19.3125 11.6242 19.3125 11.1567C19.3125 7.58497 16.4156 4.68822 12.8438 4.68822C12.3762 4.68822 12 4.31206 12 3.84451C12 3.37695 12.3762 3.00079 12.8438 3.00079ZM13.125 9.7505C13.4234 9.7505 13.7095 9.86902 13.9205 10.08C14.1315 10.291 14.25 10.5771 14.25 10.8754C14.25 11.1738 14.1315 11.4599 13.9205 11.6709C13.7095 11.8819 13.4234 12.0004 13.125 12.0004C12.8266 12.0004 12.5405 11.8819 12.3295 11.6709C12.1185 11.4599 12 11.1738 12 10.8754C12 10.5771 12.1185 10.291 12.3295 10.08C12.5405 9.86902 12.8266 9.7505 13.125 9.7505ZM12 7.21936C12 6.7518 12.3762 6.37564 12.8438 6.37564C15.484 6.37564 17.625 8.51657 17.625 11.1567C17.625 11.6242 17.2488 12.0004 16.7812 12.0004C16.3137 12.0004 15.9375 11.6242 15.9375 11.1567C15.9375 9.44817 14.5523 8.06307 12.8438 8.06307C12.3762 8.06307 12 7.68691 12 7.21936ZM7.13086 3.05001C7.81289 2.86369 8.52656 3.21172 8.79727 3.8656L10.2035 7.24045C10.4426 7.81347 10.2773 8.4779 9.7957 8.86811L8.0625 10.2884C9.2332 12.7633 11.2371 14.7671 13.7121 15.9377L15.1289 14.2046C15.5227 13.723 16.1836 13.5578 16.7566 13.7968L20.1316 15.203C20.7855 15.4737 21.1336 16.1873 20.9473 16.8693L20.1035 19.9629C19.9383 20.5746 19.3828 21 18.75 21C10.0523 21 3 13.948 3 5.25069C3 4.61791 3.42539 4.06246 4.03711 3.89372L7.13086 3.05001Z" fill="white"/>
</svg>
