<svg width="280" height="280" viewBox="0 0 280 280" fill="none" xmlns="http://www.w3.org/2000/svg">
<path d="M129.222 61C122.984 61 117.944 66.0781 117.944 72.3636V73.1803V108.55C117.944 110.538 116.359 112.136 114.385 112.136C113.116 112.136 111.918 111.461 111.284 110.325L94.3668 80.5312C68.2517 93.4928 50.2778 120.588 50.2778 151.909V174.636H230.722V151.056C230.405 120.091 212.502 93.3862 186.633 80.5312L169.716 110.325C169.082 111.461 167.884 112.136 166.615 112.136C164.641 112.136 163.056 110.538 163.056 108.55V73.1803V72.3636C163.056 66.0781 158.016 61 151.778 61H129.222ZM44.8503 185.999C41.608 185.999 39 188.627 39 191.894C39 193.563 39.7049 195.161 41.0441 196.12C48.6918 201.766 78.4017 220.09 140.5 220.09C202.598 220.09 232.308 201.766 239.956 196.12C241.295 195.126 242 193.563 242 191.894C242 188.627 239.392 185.999 236.15 185.999H44.8503Z" stroke="#C5C5C5" stroke-width="4"/>
</svg>
