<svg width="258" height="50" viewBox="0 0 258 50" fill="none" xmlns="http://www.w3.org/2000/svg">
<path d="M55.2865 0.0078125H69.6829L49.2323 49.9981H34.8359L55.2865 0.0078125Z" fill="#FB6A29"/>
<path d="M34.8391 50.0059H20.4428L-0.0078125 0.015625H14.3885L34.8391 50.0059Z" fill="#FB6A29"/>
<path d="M73.1363 24.8047H81.6711L71.3612 50.0029H56.9648L65.0831 30.1666C66.408 26.9286 69.5965 24.8073 73.1363 24.8073V24.8047Z" fill="#FB6A29"/>
<path d="M91.944 0H106.34L98.3262 19.4719C96.9962 22.7021 93.8155 24.8156 90.2782 24.8156H81.7305L91.944 0Z" fill="#FB6A29"/>
<path d="M100.625 24.8047H109.159L98.8495 50.0029H84.4531L92.5714 30.1666C93.8963 26.9286 97.0847 24.8073 100.625 24.8073V24.8047Z" fill="#FB6A29"/>
<path d="M119.432 0H133.829L125.815 19.4719C124.484 22.7021 121.304 24.8156 117.767 24.8156H109.219L119.432 0Z" fill="#FB6A29"/>
<path d="M144.294 10.3418V0H146.617C149.122 0 150.311 0.867646 150.311 2.71489C150.311 3.72248 149.962 4.33823 149.164 4.78605C150.381 5.28985 150.899 6.05953 150.899 7.33301C150.899 9.36219 149.598 10.3418 146.925 10.3418H144.294ZM145.623 9.11029H146.883C148.758 9.11029 149.556 8.57851 149.556 7.361C149.556 6.22747 148.758 5.54174 147.429 5.54174H145.623V9.11029ZM145.623 4.29625H147.345C148.436 4.29625 148.968 3.79246 148.968 2.77087C148.968 1.67932 148.338 1.24549 146.715 1.24549H145.623V4.29625Z" fill="white"/>
<path d="M151.867 6.50735C151.867 4.19829 153.63 2.47699 155.967 2.47699C158.22 2.47699 159.941 4.22628 159.941 6.52135C159.941 8.78842 158.22 10.5237 155.967 10.5237C153.658 10.5237 151.867 8.77443 151.867 6.50735ZM155.953 9.32021C157.478 9.32021 158.626 8.13069 158.626 6.52135C158.626 4.88401 157.464 3.6805 155.883 3.6805C154.357 3.6805 153.196 4.912 153.196 6.50735C153.196 8.1167 154.385 9.32021 155.953 9.32021Z" fill="white"/>
<path d="M160.25 12.1331V9.15227H161.3L164.085 2.65892H165.4L168.185 9.15227H169.235V12.1331H168.325L167.933 10.3418H161.552L161.174 12.1331H160.25ZM162.671 9.15227H166.814L164.743 4.29625L162.671 9.15227Z" fill="white"/>
<path d="M169.523 6.50735C169.523 4.19829 171.287 2.47699 173.624 2.47699C175.877 2.47699 177.598 4.22628 177.598 6.52135C177.598 8.78842 175.877 10.5237 173.624 10.5237C171.315 10.5237 169.523 8.77443 169.523 6.50735ZM173.61 9.32021C175.135 9.32021 176.283 8.13069 176.283 6.52135C176.283 4.88401 175.121 3.6805 173.54 3.6805C172.014 3.6805 170.853 4.912 170.853 6.50735C170.853 8.1167 172.042 9.32021 173.61 9.32021Z" fill="white"/>
<path d="M178.974 10.3418V2.65892H185.748V10.3418H184.432V3.84843H180.29V10.3418H178.974Z" fill="white"/>
<path d="M187.098 6.50735C187.098 4.19829 188.862 2.47699 191.199 2.47699C193.452 2.47699 195.173 4.22628 195.173 6.52135C195.173 8.78842 193.452 10.5237 191.199 10.5237C188.89 10.5237 187.098 8.77443 187.098 6.50735ZM191.185 9.32021C192.71 9.32021 193.858 8.13069 193.858 6.52135C193.858 4.88401 192.696 3.6805 191.115 3.6805C189.589 3.6805 188.428 4.912 188.428 6.50735C188.428 8.1167 189.617 9.32021 191.185 9.32021Z" fill="white"/>
<path d="M196.549 10.3418V2.65892H197.865V5.84962H202.063V2.65892H203.364V10.3418H202.063V7.03913H197.865V10.3418H196.549Z" fill="white"/>
<path d="M205.05 10.3418V2.65892H206.351V8.48055L210.619 2.65892H211.935V10.3418H210.633V4.50617L206.365 10.3418H205.05Z" fill="white"/>
<path d="M212.835 10.3418L215.997 6.42339L212.891 2.65892H214.486L217.313 6.17149V2.65892H218.614V6.17149L221.441 2.65892H223.037L219.93 6.42339L223.093 10.3418H221.469L218.614 6.68928V10.3418H217.313V6.68928L214.458 10.3418H212.835Z" fill="white"/>
<path d="M230.093 7.89279H231.478C230.946 9.46015 229.449 10.5237 227.77 10.5237C225.475 10.5237 223.669 8.74644 223.669 6.47936C223.669 4.24027 225.447 2.47699 227.672 2.47699C229.911 2.47699 231.702 4.25427 231.702 6.47936C231.702 6.67528 231.688 6.81523 231.646 6.99715H225.041C225.167 8.32661 226.314 9.32021 227.742 9.32021C228.763 9.32021 229.645 8.78842 230.093 7.89279ZM225.041 5.83562H230.373C230.065 4.47818 229.057 3.6805 227.686 3.6805C226.342 3.6805 225.321 4.52016 225.041 5.83562Z" fill="white"/>
<path d="M233.011 10.3418V2.65892H234.326V5.84962H238.525V2.65892H239.826V10.3418H238.525V7.03913H234.326V10.3418H233.011Z" fill="white"/>
<path d="M241.511 10.3418V2.65892H242.813V8.48055L247.081 2.65892H248.397V10.3418H247.095V4.50617L242.827 10.3418H241.511Z" fill="white"/>
<path d="M256.182 7.89279H257.567C257.035 9.46015 255.538 10.5237 253.859 10.5237C251.564 10.5237 249.758 8.74644 249.758 6.47936C249.758 4.24027 251.536 2.47699 253.761 2.47699C256 2.47699 257.791 4.25427 257.791 6.47936C257.791 6.67528 257.777 6.81523 257.735 6.99715H251.13C251.256 8.32661 252.403 9.32021 253.831 9.32021C254.852 9.32021 255.734 8.78842 256.182 7.89279ZM251.13 5.83562H256.462C256.154 4.47818 255.146 3.6805 253.775 3.6805C252.431 3.6805 251.41 4.52016 251.13 5.83562Z" fill="white"/>
<path d="M152.495 26.5044H154.02C153.054 28.4076 151.375 29.4572 149.276 29.4572C146.197 29.4572 143.832 27.1341 143.832 24.1114C143.832 21.0746 146.155 18.7515 149.178 18.7515C151.347 18.7515 153.152 19.8711 153.992 21.7183H152.495C151.725 20.5568 150.675 19.997 149.22 19.997C146.925 19.997 145.175 21.7603 145.175 24.0974C145.175 26.3644 147.009 28.2117 149.248 28.2117C150.549 28.2117 151.529 27.6939 152.495 26.5044Z" fill="white"/>
<path d="M161.515 26.8263H162.901C162.369 28.3936 160.871 29.4572 159.192 29.4572C156.897 29.4572 155.092 27.6799 155.092 25.4128C155.092 23.1737 156.869 21.4105 159.094 21.4105C161.333 21.4105 163.124 23.1877 163.124 25.4128C163.124 25.6088 163.11 25.7487 163.069 25.9306H156.463C156.589 27.2601 157.737 28.2537 159.164 28.2537C160.186 28.2537 161.067 27.7219 161.515 26.8263ZM156.463 24.7691H161.795C161.487 23.4116 160.48 22.614 159.108 22.614C157.765 22.614 156.743 23.4536 156.463 24.7691Z" fill="white"/>
<path d="M164.433 29.2753V21.5924H167.54C169.247 21.5924 170.283 22.3901 170.283 23.7195C170.283 24.3213 169.849 24.951 169.289 25.1889C170.157 25.5108 170.619 26.1265 170.619 26.9242C170.619 28.2817 169.457 29.2753 167.848 29.2753H164.433ZM165.749 24.7271H167.428C168.45 24.7271 169.024 24.3633 169.024 23.7195C169.024 23.1038 168.478 22.7819 167.428 22.7819H165.749V24.7271ZM165.749 28.0857H167.624C168.688 28.0857 169.303 27.6659 169.303 26.9242C169.303 26.1965 168.716 25.8047 167.624 25.8047H165.749V28.0857Z" fill="white"/>
<path d="M178.051 26.8263H179.437C178.905 28.3936 177.408 29.4572 175.728 29.4572C173.433 29.4572 171.628 27.6799 171.628 25.4128C171.628 23.1737 173.405 21.4105 175.63 21.4105C177.869 21.4105 179.661 23.1877 179.661 25.4128C179.661 25.6088 179.647 25.7487 179.605 25.9306H172.999C173.125 27.2601 174.273 28.2537 175.7 28.2537C176.722 28.2537 177.604 27.7219 178.051 26.8263ZM172.999 24.7691H178.331C178.023 23.4116 177.016 22.614 175.644 22.614C174.301 22.614 173.279 23.4536 172.999 24.7691Z" fill="white"/>
<path d="M180.97 31.9342V21.5924H182.229V22.7679C182.859 21.8863 183.852 21.4105 185.084 21.4105C187.351 21.4105 189.058 23.1318 189.058 25.4268C189.058 27.7219 187.337 29.4572 185.056 29.4572C183.894 29.4572 182.971 29.0234 182.285 28.1557V31.9342H180.97ZM184.986 28.2537C186.539 28.2537 187.729 27.0502 187.729 25.4548C187.729 23.8035 186.553 22.614 184.93 22.614C183.391 22.614 182.201 23.8455 182.201 25.4408C182.201 27.0362 183.405 28.2537 184.986 28.2537Z" fill="white"/>
<path d="M190.413 29.2753V21.5924H191.729V24.7831H195.927V21.5924H197.228V29.2753H195.927V25.9726H191.729V29.2753H190.413Z" fill="white"/>
<path d="M198.592 25.4408C198.592 23.1318 200.355 21.4105 202.692 21.4105C204.945 21.4105 206.666 23.1597 206.666 25.4548C206.666 27.7219 204.945 29.4572 202.692 29.4572C200.383 29.4572 198.592 27.7079 198.592 25.4408ZM202.678 28.2537C204.203 28.2537 205.351 27.0642 205.351 25.4548C205.351 23.8175 204.189 22.614 202.608 22.614C201.083 22.614 199.921 23.8455 199.921 25.4408C199.921 27.0502 201.111 28.2537 202.678 28.2537Z" fill="white"/>
<path d="M209.302 18.8355H210.464C210.464 19.5912 210.799 19.9551 211.485 19.9551C212.171 19.9551 212.507 19.5912 212.507 18.8355H213.668C213.472 20.025 212.717 20.6548 211.485 20.6548C210.254 20.6548 209.498 20.025 209.302 18.8355ZM208.043 29.2753V21.5924H209.344V27.414L213.612 21.5924H214.928V29.2753H213.626V23.4396L209.358 29.2753H208.043Z" fill="white"/>
<path d="M152.495 45.4379H154.02C153.054 47.3411 151.375 48.3907 149.276 48.3907C146.197 48.3907 143.832 46.0676 143.832 43.0448C143.832 40.0081 146.155 37.685 149.178 37.685C151.347 37.685 153.152 38.8046 153.992 40.6518H152.495C151.725 39.4903 150.675 38.9305 149.22 38.9305C146.925 38.9305 145.175 40.6938 145.175 43.0308C145.175 45.2979 147.009 47.1452 149.248 47.1452C150.549 47.1452 151.529 46.6274 152.495 45.4379Z" fill="white"/>
<path d="M156.715 48.2087V41.7154H154.77V40.5259H159.948V41.7154H158.031V48.2087H156.715Z" fill="white"/>
<path d="M160.668 44.3743C160.668 42.0652 162.431 40.3439 164.768 40.3439C167.021 40.3439 168.742 42.0932 168.742 44.3883C168.742 46.6554 167.021 48.3907 164.768 48.3907C162.459 48.3907 160.668 46.6414 160.668 44.3743ZM164.754 47.1871C166.279 47.1871 167.427 45.9976 167.427 44.3883C167.427 42.7509 166.265 41.5474 164.684 41.5474C163.159 41.5474 161.997 42.7789 161.997 44.3743C161.997 45.9836 163.187 47.1871 164.754 47.1871Z" fill="white"/>
<path d="M168.898 48.2087L172.172 40.5259H173.432L176.706 48.2087H175.307L172.802 42.1772L170.297 48.2087H168.898Z" fill="white"/>
<path d="M177.608 48.2087V40.5259H178.909V46.3475L183.177 40.5259H184.493V48.2087H183.191V42.3731L178.923 48.2087H177.608Z" fill="white"/>
<path d="M186.176 48.2087V40.5259H187.492V47.0192H191.452V40.5259H192.754V47.0192H194.083V50H193.16L192.782 48.2087H186.176Z" fill="white"/>
<path d="M196.375 47.0192H198.082C199.076 47.0192 199.622 46.5994 199.622 45.8297C199.622 45.06 199.076 44.6402 198.082 44.6402H196.375V47.0192ZM195.06 48.2087V40.5259H196.375V43.4507H198.292C199.846 43.4507 200.951 44.4443 200.951 45.8297C200.951 47.2151 199.846 48.2087 198.292 48.2087H195.06ZM201.791 48.2087V40.5259H203.106V48.2087H201.791Z" fill="white"/>
</svg>
