<svg width="108" height="40" viewBox="0 0 108 40" fill="none" xmlns="http://www.w3.org/2000/svg">
<path d="M44.2277 0.0078125H55.7447L39.3843 40.0001H27.8672L44.2277 0.0078125Z" fill="#FB6A29"/>
<path d="M27.8736 40.0001H16.3566L-0.00390625 0.0078125H11.5132L27.8736 40.0001Z" fill="#FB6A29"/>
<path d="M58.5075 19.8438H65.3353L57.0874 40.0023H45.5703L52.0649 24.1332C53.1248 21.5429 55.6756 19.8458 58.5075 19.8458V19.8438Z" fill="#FB6A29"/>
<path d="M73.5537 0H85.0708L78.6594 15.5775C77.5954 18.1616 75.0508 19.8525 72.221 19.8525H65.3828L73.5537 0Z" fill="#FB6A29"/>
<path d="M80.4997 19.8438H87.3275L79.0796 40.0023H67.5625L74.0571 24.1332C75.117 21.5429 77.6678 19.8458 80.4997 19.8458V19.8438Z" fill="#FB6A29"/>
<path d="M95.5459 0H107.063L100.652 15.5775C99.5876 18.1616 97.043 19.8525 94.2132 19.8525H87.375L95.5459 0Z" fill="#FB6A29"/>
</svg>
