<svg width="1920" height="5324" viewBox="0 0 1920 5324" fill="none" xmlns="http://www.w3.org/2000/svg">
<g clip-path="url(#clip0_4472_130079)">
<path d="M1092.83 446.438H939.154L1124.79 900.001H1384L1237.83 542.95C1213.97 484.668 1156.56 446.484 1092.83 446.484V446.438Z" fill="black" fill-opacity="0.01"/>
<path d="M754.186 0H494.974L639.273 350.492C663.221 408.633 720.49 446.676 784.18 446.676H938.086L754.186 0Z" fill="black" fill-opacity="0.01"/>
<path d="M597.849 446.438H444.177L629.811 900.001H889.023L742.85 542.95C718.996 484.668 661.586 446.484 597.849 446.484V446.438Z" fill="black" fill-opacity="0.01"/>
<path d="M259.209 0H-0.00277197L144.296 350.492C168.244 408.633 225.513 446.676 289.203 446.676H443.109L259.209 0Z" fill="black" fill-opacity="0.01"/>
<path d="M1092.83 2999.44H939.154L1124.79 3453H1384L1237.83 3095.95C1213.97 3037.67 1156.56 2999.48 1092.83 2999.48V2999.44Z" fill="black" fill-opacity="0.01"/>
<path d="M754.186 2553H494.974L639.273 2903.49C663.221 2961.63 720.49 2999.68 784.18 2999.68H938.086L754.186 2553Z" fill="black" fill-opacity="0.01"/>
<path d="M597.849 2999.44H444.177L629.811 3453H889.023L742.85 3095.95C718.996 3037.67 661.586 2999.48 597.849 2999.48V2999.44Z" fill="black" fill-opacity="0.01"/>
<path d="M259.209 2553H-0.00277197L144.296 2903.49C168.244 2961.63 225.513 2999.68 289.203 2999.68H443.109L259.209 2553Z" fill="black" fill-opacity="0.01"/>
<path d="M462.826 2099.44H309.154L494.788 2553H754L607.827 2195.95C583.973 2137.67 526.562 2099.48 462.826 2099.48V2099.44Z" fill="black" fill-opacity="0.01"/>
<path d="M124.186 1653H-135.026L9.27254 2003.49C33.2207 2061.63 90.4901 2099.68 154.18 2099.68H308.086L124.186 1653Z" fill="black" fill-opacity="0.01"/>
<path d="M-32.1509 2099.44H-185.823L-0.188679 2553H259.023L112.85 2195.95C88.9959 2137.67 31.586 2099.48 -32.1509 2099.48V2099.44Z" fill="black" fill-opacity="0.01"/>
<path d="M-167.174 1199.44H-320.846L-135.212 1653H124L-22.173 1295.95C-46.0275 1237.67 -103.438 1199.48 -167.174 1199.48V1199.44Z" fill="black" fill-opacity="0.01"/>
<path d="M1722.83 1346.44H1569.15L1754.79 1800H2014L1867.83 1442.95C1843.97 1384.67 1786.56 1346.48 1722.83 1346.48V1346.44Z" fill="black" fill-opacity="0.01"/>
<path d="M1384.19 900H1124.97L1269.27 1250.49C1293.22 1308.63 1350.49 1346.68 1414.18 1346.68H1568.09L1384.19 900Z" fill="black" fill-opacity="0.01"/>
<path d="M1227.85 1346.44H1074.18L1259.81 1800H1519.02L1372.85 1442.95C1349 1384.67 1291.59 1346.48 1227.85 1346.48V1346.44Z" fill="black" fill-opacity="0.01"/>
<path d="M889.209 900H629.997L774.296 1250.49C798.244 1308.63 855.513 1346.68 919.203 1346.68H1073.11L889.209 900Z" fill="black" fill-opacity="0.01"/>
<path d="M1722.83 3899.44H1569.15L1754.79 4353H2014L1867.83 3995.95C1843.97 3937.67 1786.56 3899.48 1722.83 3899.48V3899.44Z" fill="black" fill-opacity="0.01"/>
<path d="M1384.19 3453H1124.97L1269.27 3803.49C1293.22 3861.63 1350.49 3899.68 1414.18 3899.68H1568.09L1384.19 3453Z" fill="black" fill-opacity="0.01"/>
<path d="M1227.85 3899.44H1074.18L1259.81 4353H1519.02L1372.85 3995.95C1349 3937.67 1291.59 3899.48 1227.85 3899.48V3899.44Z" fill="black" fill-opacity="0.01"/>
<path d="M889.209 3453H629.997L774.296 3803.49C798.244 3861.63 855.513 3899.68 919.203 3899.68H1073.11L889.209 3453Z" fill="black" fill-opacity="0.01"/>
<path d="M462.826 4870.44H309.154L494.788 5324H754L607.827 4966.95C583.973 4908.67 526.562 4870.48 462.826 4870.48V4870.44Z" fill="black" fill-opacity="0.01"/>
<path d="M124.186 4424H-135.026L9.27254 4774.49C33.2207 4832.63 90.4901 4870.68 154.18 4870.68H308.086L124.186 4424Z" fill="black" fill-opacity="0.01"/>
<path d="M-32.1509 4870.44H-185.823L-0.188679 5324H259.023L112.85 4966.95C88.9959 4908.67 31.586 4870.48 -32.1509 4870.48V4870.44Z" fill="black" fill-opacity="0.01"/>
<path d="M-167.174 3970.44H-320.846L-135.212 4424H124L-22.173 4066.95C-46.0275 4008.67 -103.438 3970.48 -167.174 3970.48V3970.44Z" fill="black" fill-opacity="0.01"/>
<path d="M2014.19 1800H1754.97L1899.27 2150.1C1923.22 2208.18 1980.49 2246.18 2044.18 2246.18H2198.09L2014.19 1800Z" fill="black" fill-opacity="0.01"/>
<path d="M1857.85 2245.94H1704.18L1889.81 2699H2149.02L2002.85 2342.34C1979 2284.13 1921.59 2245.98 1857.85 2245.98V2245.94Z" fill="black" fill-opacity="0.01"/>
<path d="M1519.21 1800H1260L1404.3 2150.1C1428.24 2208.18 1485.51 2246.18 1549.2 2246.18H1703.11L1519.21 1800Z" fill="black" fill-opacity="0.01"/>
<path d="M2014.19 4353H1754.97L1899.27 4703.1C1923.22 4761.18 1980.49 4799.18 2044.18 4799.18H2198.09L2014.19 4353Z" fill="black" fill-opacity="0.01"/>
<path d="M1857.85 4798.94H1704.18L1889.81 5252H2149.02L2002.85 4895.34C1979 4837.13 1921.59 4798.98 1857.85 4798.98V4798.94Z" fill="black" fill-opacity="0.01"/>
<path d="M1519.21 4353H1260L1404.3 4703.1C1428.24 4761.18 1485.51 4799.18 1549.2 4799.18H1703.11L1519.21 4353Z" fill="black" fill-opacity="0.01"/>
<path d="M2149.21 5252H1890L2034.3 5602.1C2058.24 5660.18 2115.51 5698.18 2179.2 5698.18H2333.11L2149.21 5252Z" fill="black" fill-opacity="0.01"/>
<path d="M2149.21 2699H1890L2034.3 3049.1C2058.24 3107.18 2115.51 3145.18 2179.2 3145.18H2333.11L2149.21 2699Z" fill="black" fill-opacity="0.01"/>
</g>
<defs>
<clipPath id="clip0_4472_130079">
<rect width="1920" height="5324" fill="white" transform="matrix(-1 0 0 1 1920 0)"/>
</clipPath>
</defs>
</svg>
