<svg width="1920" height="900" viewBox="0 0 1920 900" fill="none" xmlns="http://www.w3.org/2000/svg">
<path fill-rule="evenodd" clip-rule="evenodd" d="M259.212 0H0L144.299 350.492C168.247 408.633 225.516 446.676 289.206 446.676H443.112L293.384 83H529.145L639.272 350.492C663.22 408.633 720.489 446.676 784.179 446.676H938.085L788.357 83H1920V80H787.122L754.185 0H494.973L527.909 80H292.149L259.212 0ZM1092.83 446.437H939.154L1124.79 900H1384L1237.83 542.949C1213.97 484.667 1156.56 446.483 1092.83 446.483V446.437ZM444.181 446.437H597.853V446.483C661.59 446.483 719 484.667 742.854 542.949L889.027 900H629.815L444.181 446.437Z" fill="white" fill-opacity="0.02"/>
</svg>
