<svg width="1384" height="900" viewBox="0 0 1384 900" fill="none" xmlns="http://www.w3.org/2000/svg">
<path d="M1092.83 446.438H939.154L1124.79 900.001H1384L1237.83 542.95C1213.97 484.668 1156.56 446.484 1092.83 446.484V446.438Z" fill="#F8F8F8"/>
<path d="M754.186 0H494.974L639.273 350.492C663.221 408.633 720.49 446.676 784.18 446.676H938.086L754.186 0Z" fill="#F8F8F8"/>
<path d="M597.853 446.438H444.181L629.815 900.001H889.027L742.854 542.95C719 484.668 661.59 446.484 597.853 446.484V446.438Z" fill="#F8F8F8"/>
<path d="M259.213 0H0.00113428L144.3 350.492C168.248 408.633 225.517 446.676 289.207 446.676H443.113L259.213 0Z" fill="#F8F8F8"/>
</svg>
